<svg viewBox="251 392 524 210" xmlns="http://www.w3.org/2000/svg" preserveAspectRatio="xMidYMid meet"><svg x="251" y="392" width="524" height="210" xmlns="http://www.w3.org/2000/svg" style="display:block" preserveAspectRatio="none"><svg version="1.1" xmlns="http://www.w3.org/2000/svg" style="display: block;" width="524" height="210" viewBox="0.00 -0.38 2048.00 820.76" preserveAspectRatio="none"><g id="svg-group-3e9f1ef5-a83e-4d8f-9884-04a110076bd4">
<path transform="translate(0,0)" fill="rgba(0, 0, 0, 1)" d="M 1220.57 124.425 C 1246.56 119.245 1285.56 136.021 1307.75 148.293 C 1317.65 153.765 1325.38 130.928 1339.26 127.093 C 1362.49 120.67 1375.6 137.538 1373.05 159.423 C 1372.79 233.42 1374.5 307.662 1374.61 381.705 C 1374.64 402.363 1364.03 416.76 1341.29 414.273 C 1329.19 412.697 1319.98 400.765 1313.46 391.422 C 1302.61 397.266 1291.29 403.145 1279.75 407.444 C 1266.38 412.341 1257.16 415.233 1242.76 416.449 C 1200.52 420.17 1158.54 406.857 1126.17 379.47 C 1099.45 356.242 1082.93 323.439 1080.18 288.138 C 1075.06 222.057 1105.41 164.422 1166.95 136.5 C 1185.24 128.2 1200.89 125.964 1220.57 124.425 z M 1238.5 360.618 C 1287.94 354.207 1322.85 308.958 1316.51 259.503 C 1310.16 210.049 1264.96 175.08 1215.49 181.362 C 1165.94 187.655 1130.89 232.961 1137.25 282.507 C 1143.61 332.053 1188.96 367.041 1238.5 360.618 z"/>
<path transform="translate(0,0)" fill="rgba(0, 0, 0, 1)" d="M 1696.47 125.42 C 1700.38 125.333 1704.3 125.296 1708.21 125.309 C 1739.65 125.498 1768.3 139.251 1790.12 161.423 C 1803.72 175.237 1813.98 191.743 1819.38 210.409 C 1828.49 241.908 1824.82 322.706 1824.49 358.564 C 1850.11 358.29 2015.51 356.164 2026.87 360.208 C 2038.05 364.193 2043.4 377.252 2048 387.151 C 2033.47 419.446 2029.39 414.9 1995.3 414.9 L 1945.21 414.858 C 1894.8 414.859 1844.26 415.003 1793.84 414.786 C 1781.51 414.733 1776.79 408.819 1768.75 400.343 C 1767.94 389.117 1768.54 369.967 1768.56 358.297 L 1768.73 278.535 C 1768.79 248.324 1772.44 222.32 1748.77 198.238 C 1717.5 166.417 1660.28 183.623 1648.72 225.656 C 1645.11 238.764 1646.69 262.153 1646.66 276.777 L 1646.49 347.873 C 1646.69 358.451 1646.84 369.03 1646.94 379.61 C 1646.97 390.198 1646.19 399.59 1638.12 407.496 C 1632.32 413.186 1624.45 416.263 1616.32 416.014 C 1584.77 415.255 1588.68 388.471 1588.75 366.698 L 1588.79 284.469 C 1588.79 269.421 1589.95 250.122 1588.06 235.469 C 1581.41 183.694 1520.67 166.807 1485.45 201.772 C 1476.94 210.348 1471.07 221.191 1468.55 233.008 C 1465.75 245.536 1466.82 270.98 1466.79 285.178 C 1466.94 315.93 1467.01 347.019 1467.13 377.731 C 1467.21 398.153 1460.4 415.706 1436.64 415.036 C 1423.72 414.671 1411.86 404.414 1411.12 391.286 C 1410.53 380.756 1410.83 369.862 1410.84 359.353 L 1410.73 296.016 L 1410.57 200.725 C 1410.53 182.07 1409.93 160.122 1411.2 141.752 C 1431.06 115.91 1452.18 124.833 1466.4 149.214 C 1484.69 135.68 1508.53 125.966 1531.47 125.686 C 1563.29 125.373 1593.92 137.751 1616.59 160.082 C 1645.27 139.955 1659.6 129.51 1696.47 125.42 z"/>
<path transform="translate(0,0)" fill="rgba(0, 0, 0, 1)" d="M 907.259 124.401 C 926.412 120.865 952.606 127.562 973.86 135.178 C 1009.17 147.83 1065.43 197.358 1043.69 240.331 C 1039.65 248.333 1012.35 261.262 1002.82 266.086 C 986.406 274.268 970.096 282.65 953.89 291.23 C 935.96 300.741 918.098 310.379 900.306 320.144 C 888.613 326.6 872.865 336.046 860.917 340.768 C 894.526 374.831 954.829 368.182 985.477 333.975 C 998.255 319.713 998.29 313.135 1015.77 303.334 C 1028.52 303.441 1032.57 304.103 1041.79 313.082 C 1043.69 315.124 1046.48 319.881 1048.07 322.402 C 1049.53 339.262 1044.04 352.882 1032.95 365.728 C 981.788 424.945 886.121 437.498 825.201 385.248 C 725.786 299.981 772.176 137.458 907.259 124.401 z M 877.52 268.984 C 899.791 256.916 922.213 245.127 944.78 233.62 C 954.111 228.796 975.699 218.206 983.011 212.425 C 965.153 187.948 942.743 179.422 913.126 180.506 C 860.472 184.579 824.306 224.167 829.808 277.502 C 830.222 281.512 830.492 286.291 832.853 289.683 C 839.92 291.442 869.343 273.492 877.52 268.984 z"/>
<path transform="translate(0,0)" fill="rgba(0, 0, 0, 1)" d="M 594.638 124.33 C 598.48 123.543 605.342 125.592 608.582 127.493 C 620.2 134.31 623.443 144.765 627.036 156.467 C 649.092 135.17 716.817 116.798 744.882 137.456 C 761.859 149.952 749.903 186.783 729.766 187.526 C 700.266 188.613 673.12 181.357 650.533 206.556 C 628.558 229.559 623.822 251.428 623.928 282.759 C 623.699 316.238 624.139 349.551 624.985 383.002 C 625.69 410.931 609.877 415.498 586.633 414.664 C 578.365 409.377 569.974 404.739 569.601 394.051 C 569.174 381.853 569.261 369.792 569.268 357.594 L 569.27 285.782 C 568.919 248.819 565.926 212.095 569.003 174.981 C 570.024 162.664 568.37 150.572 570.549 138.008 C 578.137 128.135 582.822 126.146 594.638 124.33 z"/>
<path transform="translate(0,0)" fill="rgba(0, 0, 0, 1)" d="M 1401.7 532.949 C 1412.1 532.382 1429.81 541.659 1430.59 551.614 C 1436.67 629.384 1432.45 709.103 1433.61 787.211 C 1433.92 808.243 1425.56 812.154 1407.65 817.783 C 1398.89 818.603 1387.99 811.692 1382.76 804.862 C 1379.45 800.534 1378.56 797.871 1378.14 792.546 C 1376.86 776.243 1377.75 759.811 1377.52 743.468 C 1377.73 708.812 1376.87 674.379 1378.84 639.799 C 1378.79 629.868 1378.17 619.931 1377.82 609.995 C 1377.08 588.985 1377.74 569.545 1380.28 548.657 C 1387.38 538.576 1390.65 537.262 1401.7 532.949 z"/>
<path transform="translate(0,0)" fill="rgba(0, 0, 0, 1)" d="M 1399.01 448.66 C 1416.59 445.471 1433.42 457.143 1436.6 474.724 C 1439.78 492.305 1428.09 509.131 1410.51 512.296 C 1392.95 515.457 1376.14 503.788 1372.97 486.224 C 1369.79 468.661 1381.45 451.847 1399.01 448.66 z"/>
<path transform="translate(0,0)" fill="rgba(0, 0, 0, 1)" d="M 497.334 0 L 505.721 0 C 512.883 3.62529 524.632 9.04712 526.093 17.3838 C 529.71 38.0199 528.125 65.0213 528.07 85.7451 L 527.994 186.409 C 528.047 220.653 531.346 255.728 527.495 289.434 C 520.887 347.261 480.461 392.242 425.402 409.042 C 395.537 418.305 369.673 414.967 339.527 414.883 L 234.834 414.853 L 104.094 414.892 C 79.4556 414.936 54.8356 415.076 30.1977 414.86 C 13.4381 414.713 8.71231 407.998 0 395.068 L 0 383.351 C 5.82758 376.376 7.982 365.424 18.2069 362.064 C 37.765 355.637 68.9599 358.464 89.5374 358.444 L 210.843 358.358 C 220.385 358.354 251.341 359.156 258.965 356.643 C 258.875 349.462 249.562 341.339 247.367 335.13 C 241.536 318.632 236.283 302.628 234.384 285.145 C 230.573 250.048 242.795 206.758 264.65 179.399 C 288.472 149.578 328.967 128.363 366.798 124.466 C 405.094 120.522 443.233 134.91 472.794 158.687 C 474.251 147.263 473.824 130.471 473.813 118.561 L 473.644 56.2442 C 473.62 45.3027 473.003 31.9608 474.918 21.3276 C 477.01 9.71526 488.175 5.67197 497.334 0 z M 396.635 358.65 C 445.383 349.605 477.579 302.767 468.559 254.015 C 459.539 205.262 412.717 173.043 363.96 182.039 C 315.168 191.041 282.922 237.904 291.948 286.69 C 300.975 335.477 347.853 367.7 396.635 358.65 z"/>
<path transform="translate(0,0)" fill="rgba(0, 0, 0, 1)" d="M 562.372 820 C 557.939 815.929 534.125 810.494 526.426 806.958 C 394.237 746.246 425.868 542.928 573.031 528.806 C 614.398 524.836 643.168 535.375 676.8 558.311 C 683.474 546.958 684.8 537.547 699.763 533.307 C 708.038 530.962 716.089 532.411 723.48 536.368 C 727.744 538.651 734.309 546.513 734.53 550.523 C 735.944 576.274 735.216 608.783 735.183 634.029 L 735.207 740.175 C 735.208 750.619 736.496 796.906 733.012 803.459 L 732.727 804.003 C 727.809 813.228 717.834 814.735 710.857 820 L 706.588 820 C 704.26 817.933 700.305 816.419 697.404 815.138 C 684.812 809.579 682.301 803.67 675.754 792.591 C 661.361 801.664 645.825 808.372 629.663 813.506 C 623.484 815.469 616.551 815.812 611.59 820 L 562.372 820 z M 595.576 763.667 C 644.593 759.421 681.102 716.577 677.518 667.508 C 673.934 618.438 631.588 581.354 582.474 584.274 C 550.108 586.199 521.283 605.395 507.028 634.517 C 492.774 663.638 495.297 698.178 513.631 724.92 C 531.965 751.661 563.274 766.465 595.576 763.667 z"/>
<path transform="translate(0,0)" fill="rgba(0, 0, 0, 1)" d="M 207.3 562.326 C 262.903 517.162 332.243 512.7 383.993 569.99 C 411.321 600.245 411.903 643.078 410.784 681.214 C 408.78 718.441 413.839 762.132 410.083 798.652 C 410.009 799.375 409.921 800.096 409.82 800.815 C 404.398 808.262 401.847 811.679 393.093 815.665 C 389.203 817.436 388.173 817.155 384.656 820 L 380.173 820 C 374.382 815.279 362.619 811.768 359.814 804.102 C 354.181 788.711 356.199 764.858 356.214 748.395 L 356.292 669.12 C 356.3 660.515 357.291 646.531 355.715 638.021 C 343.951 574.494 262.317 563.463 238.159 625.081 C 233.755 640.368 234.85 656.507 234.63 672.32 C 234.066 712.986 235.772 754.108 234.119 794.68 C 233.427 811.662 221.761 812.021 210.58 820 L 205.425 820 C 197.467 812.559 188.58 815.008 180.372 801.177 C 179.751 784.684 179.16 767.686 178.416 751.07 C 176.754 713.933 181.128 668.108 177.515 632.061 C 173.393 590.941 118.917 572.135 84.7027 597.616 C 73.5041 605.937 65.2692 617.631 61.2078 630.978 C 57.3807 643.965 58.2329 661.519 58.2539 675.251 L 58.437 751.842 C 58.4744 764.919 59.0351 779.59 57.7625 792.511 C 56.3003 807.356 48.3269 811.715 37.0234 820 L 25.4355 820 C 23.1065 817.923 18.7912 815.854 16.0232 813.951 C 7.32119 807.965 5.01957 802.822 0 794.155 L 0 553.478 C 7.90578 544.9 8.41018 531.48 25.8756 530.385 C 42.0239 529.372 50.312 539.268 59.2136 550.583 C 108.912 515.421 162.438 523.954 207.3 562.326 z"/>
<path transform="translate(0,0)" fill="rgba(0, 0, 0, 1)" d="M 1888.61 820 C 1883.74 815.459 1869.96 813.065 1863.2 810.308 C 1797.24 783.399 1761.94 720.498 1771.72 650.23 C 1776.87 612.741 1796.78 578.862 1827.03 556.123 C 1857.15 533.233 1895.13 523.252 1932.61 528.378 C 1975.57 534.403 2018.62 560.531 2039.75 599.183 C 2042.61 604.405 2044.12 609.492 2047.79 614.31 L 2048 614.576 L 2048 631.317 C 2034.42 651.964 2007.74 661.749 1986.1 672.537 C 1960.14 685.65 1934.32 699.048 1908.65 712.728 C 1893.44 720.667 1869.65 732.101 1856.41 741.821 C 1894.52 775.601 1953.16 771.522 1987.06 733.389 C 1994.72 724.77 2001.22 714.005 2010.03 706.777 C 2020.69 706.674 2028.6 705.765 2036.81 713.537 C 2042.57 718.982 2044.07 725.355 2048 730.074 L 2048 737.639 L 2047.76 737.939 C 2042.82 744.193 2041.47 751.774 2037.54 758.07 C 2017.93 789.499 1983.22 808.677 1947.75 816.458 C 1945.33 816.99 1943 818.506 1940.96 820 L 1888.61 820 z M 1828.03 691.393 C 1844.57 685.135 1856.82 676.565 1871.96 670.218 C 1899.18 652.687 1932.79 640.616 1960.95 624.338 C 1967.4 620.612 1978.23 614.894 1971.04 606.108 C 1954.69 586.11 1930.98 582.924 1907.92 583.472 C 1853.32 588.085 1814.76 637.382 1828.03 691.393 z"/>
<path transform="translate(0,0)" fill="rgba(0, 0, 0, 1)" d="M 1069.11 800.877 C 1067.46 790.016 1068.23 763.877 1068.26 751.464 L 1068.33 661.641 L 1068.49 513.735 C 1068.49 489.916 1068.15 464.78 1068.38 441.069 C 1068.74 405.399 1117.68 397.623 1123.85 438.847 C 1126.32 455.365 1121.74 544.3 1126.88 551 C 1128.59 551.223 1131.98 549.386 1133.62 548.479 C 1195.33 514.371 1271.26 522.348 1317.19 581.863 C 1328.38 596.39 1336.33 613.141 1340.51 630.994 C 1348.37 664.923 1343.91 708.459 1345.2 743.411 C 1345.79 759.307 1345.72 776.369 1344.83 792.258 C 1343.62 813.78 1330.07 811.551 1319.7 820 L 1312.59 820 C 1306.73 814.908 1295.75 811.183 1292.33 804.309 C 1287.88 795.36 1289.04 778.894 1289.13 768.777 L 1289.24 703.832 C 1289.25 685.313 1290.42 661.109 1286.25 643.587 C 1283.78 633.158 1278.94 623.437 1272.11 615.177 C 1256.89 596.821 1242.3 588.081 1218.21 584.469 C 1176.9 578.274 1131.77 609.324 1125.74 651.022 C 1121.71 678.904 1126.08 718.273 1124.67 747.372 C 1123.83 764.692 1125.39 782.728 1123.68 801.077 C 1115.46 812.353 1113.82 812.754 1102.04 820 L 1091.59 820 C 1081.85 812.553 1076.51 812.672 1069.11 800.877 z"/>
<path transform="translate(0,0)" fill="rgba(0, 0, 0, 1)" d="M 1525.93 557.54 C 1589.35 511.84 1670.1 520.359 1718.19 583.423 C 1732.51 602.211 1742.72 632.749 1742.66 656.743 C 1742.56 702.829 1743.75 750.189 1742.17 796.236 C 1741.7 810.128 1729.45 813.171 1720.68 820 L 1709.36 820 C 1705.26 815.5 1691.52 809.51 1690.36 804.232 C 1682.31 767.623 1690.15 726.29 1688.32 688.614 C 1688.42 660.499 1688.83 637.288 1670.34 613.634 C 1631.17 563.53 1548.65 582.358 1530.79 641.634 C 1523.02 667.402 1528.51 713.546 1525.75 742.342 C 1524.04 760.071 1526.94 782.108 1525.11 801.384 C 1516.71 812.177 1514.71 812.531 1503.51 820 L 1494.55 820 C 1486.86 813.24 1472.13 811.739 1471.5 798.352 C 1470.78 782.894 1471.08 767.307 1471.08 751.821 L 1471.07 661.816 L 1471.09 586.64 C 1471.09 576.82 1470.58 555.539 1471.73 546.835 C 1478.68 538.822 1484.85 531.33 1496.46 530.443 C 1502.89 529.959 1509.24 532.155 1514 536.513 C 1520.51 542.41 1523.11 549.486 1525.93 557.54 z"/>
<path transform="translate(0,0)" fill="rgba(0, 0, 0, 1)" d="M 882.567 820 C 876.864 814.523 859.385 811.362 850.624 807.202 C 801.388 783.825 766.435 736.485 766.319 680.9 C 765.598 639.497 775.646 605.722 804.135 574.589 C 857.824 515.915 950.615 511.009 1009.58 565.019 C 1027.57 581.492 1039.69 592.942 1038.48 618.434 C 1029.85 632.82 1024.5 637.577 1007.42 639.687 C 997.272 635.362 989.931 630.604 983.811 621.061 C 946.235 562.476 854.479 575.141 828.313 637.416 C 818.901 660.25 818.819 685.865 828.085 708.759 C 853.857 770.663 937.798 784.29 980.402 732.526 C 993.611 716.478 1003.34 695.881 1028.13 711.826 C 1033.89 715.531 1037.02 720.06 1040.41 725.877 C 1041.02 738.117 1040.57 745.395 1033.78 756.119 C 1017.43 781.951 991.994 800.231 963.677 811.017 C 956.34 813.812 945.136 814.931 938.854 819.137 L 938.394 819.439 C 938.138 819.626 937.882 819.813 937.626 820 L 882.567 820 z"/>
</g></svg></svg></svg>